<svg id="Layer_2" data-name="Layer 2" xmlns="http://www.w3.org/2000/svg" viewBox="0 0 511.97 362.75"><defs><style>.cls-1{stroke-width:0;fill:#fcbe01}</style></defs><g id="Layer_1-2" data-name="Layer 1"><path class="cls-1" d="M312.26 281.81c-9.3-4.5-18.17-4.35-28.1-4.37-8.6-.01-28.4 0-59.39.05-4.35.01-8.25.17-11.71.5-11.72 1.11-19.85 7.15-27.93 15.22l-45.63 45.6c-21.79 21.79-54 29.49-83.41 19.82C24.38 348.19 2.88 320.17.18 286.45c-.37-4.51-.17-11.17.6-19.96 3.58-41.23 6.34-81.6 10.94-122.03 1.8-15.79 4.56-30.18 8.27-43.16 9.87-34.5 35.4-63.48 66.24-81.4 14.09-8.18 29.22-13.25 45.22-15.78 11.5-1.82 23.43-2.9 35.78-3.25C208.03-.28 248.56.08 289.02 0c18.1-.03 37.42.28 57.96.95 17.66.58 36.39 2.42 53.29 7.71 35.73 11.19 66.59 38.7 83.49 71.57 8.88 17.27 13.02 37.59 15.69 57.64 1.16 8.73 2.06 16.63 2.71 23.72 2.93 32.16 5.97 67.35 9.13 105.57.71 8.48.86 15.12.46 19.92-1.94 23.52-12.11 42.8-30.51 57.85-32.11 26.25-79.57 22.93-108.75-6.19l-45.08-45.02c-4.52-4.51-9.29-9.08-15.15-11.91zM112.98 53.98c-19.53 9.88-34.66 24.27-45.39 43.16-6.47 11.38-9.57 25.43-11.52 38.43-2.19 14.55-3.93 29.66-5.22 45.31-2.46 29.71-4.92 58.77-7.39 87.16-.78 9.01-.87 15.41-.27 19.21 2.73 17.17 17.1 31.19 34.76 32.66 12.41 1.03 23.12-2.97 32.13-12 14.2-14.22 28.95-28.96 44.25-44.23 5.79-5.79 11.08-10.38 15.87-13.78 12.07-8.59 27.66-14.04 43.13-14.81 3.43-.17 6.72-.27 9.87-.28 13.17-.05 34.62-.05 64.36-.02 5.67.01 11.09.27 16.25.79 16.08 1.63 32.12 8.59 44.71 19.53 3.4 2.95 6.74 6.06 10.01 9.33l43.61 43.64c26.45 26.47 70.14 6.06 67.09-30.99-2.43-29.51-4.97-59.87-7.6-91.09-1.38-16.32-3.11-32.08-5.18-47.28-.93-6.86-2.36-14.11-4.29-21.75-2.69-10.63-7.25-20.41-13.69-29.33-13.46-18.65-33.73-34.52-56.34-39.72-8.53-1.97-16.94-3.19-25.23-3.67-16.04-.94-33.28-1.42-51.71-1.45-33.25-.06-66.22-.06-98.91.01-14.85.03-29.43.36-43.76.99-16.69.75-34.77 2.71-49.54 10.18z"/><path class="cls-1" d="M115.69 172.8c-3.55-1.73-7.23-1.97-11.14-2.16-1.81-.09-3.47-.45-4.98-1.07-8.87-3.65-13.58-10.08-14.15-19.29-.66-10.91 7.67-20.53 18.51-21.93 2.69-.35 5.52-.16 8.16-.93 8.85-2.6 15.46-9.94 15.8-19.41.41-11.45 5.82-18.74 16.22-21.87 3.26-.98 6.87-.94 10.83.11 9.56 2.53 15.66 11.04 15.76 20.9.09 9.39 6.19 16.95 14.99 20 4.21 1.46 8.69.52 12.8 2 8.42 3.03 13.29 8.86 14.6 17.49 1.94 12.72-8.37 24.27-21.41 24.18-11.72-.09-21.05 10.09-21.01 21.51.06 16.51-18.13 26.16-32 18.2-5.9-3.38-10.34-9.98-10.59-17.08-.33-9.33-3.81-16.47-12.39-20.65zM384 106.79c0 11.77-9.55 21.32-21.32 21.32s-21.32-9.55-21.32-21.32 9.55-21.32 21.32-21.32S384 95.02 384 106.79zm-42.66 42.66c0 11.77-9.55 21.32-21.32 21.32s-21.32-9.55-21.32-21.32 9.55-21.32 21.32-21.32 21.32 9.55 21.32 21.32zm85.33 0c0 11.77-9.55 21.32-21.32 21.32s-21.32-9.55-21.32-21.32 9.55-21.32 21.32-21.32 21.32 9.55 21.32 21.32zM384 192.12c0 11.77-9.55 21.32-21.32 21.32s-21.32-9.55-21.32-21.32 9.55-21.32 21.32-21.32S384 180.35 384 192.12z"/></g></svg>